<?xml version="1.0" encoding="UTF-8" standalone="no"?>
<!-- Generator: Adobe Illustrator 16.0.3, SVG Export Plug-In . SVG Version: 6.00 Build 0)  -->

<svg
   xmlns:dc="http://purl.org/dc/elements/1.1/"
   xmlns:cc="http://creativecommons.org/ns#"
   xmlns:rdf="http://www.w3.org/1999/02/22-rdf-syntax-ns#"
   xmlns:svg="http://www.w3.org/2000/svg"
   xmlns="http://www.w3.org/2000/svg"
   xmlns:sodipodi="http://sodipodi.sourceforge.net/DTD/sodipodi-0.dtd"
   xmlns:inkscape="http://www.inkscape.org/namespaces/inkscape"
   version="1.1"
   id="Laag_1"
   x="0px"
   y="0px"
   width="1149.875"
   height="220.02299"
   viewBox="0 0 1149.875 220.023"
   enable-background="new 0 0 1451.34 725.67"
   xml:space="preserve"
   sodipodi:docname="inter-actief-logo-tekst-rechts.svg"
   inkscape:version="0.92.2 2405546, 2018-03-11"><metadata
   id="metadata3929"><rdf:RDF><cc:Work
       rdf:about=""><dc:format>image/svg+xml</dc:format><dc:type
         rdf:resource="http://purl.org/dc/dcmitype/StillImage" /><dc:title></dc:title></cc:Work></rdf:RDF></metadata><defs
   id="defs3927" /><sodipodi:namedview
   pagecolor="#ffffff"
   bordercolor="#666666"
   borderopacity="1"
   objecttolerance="10"
   gridtolerance="10"
   guidetolerance="10"
   inkscape:pageopacity="0"
   inkscape:pageshadow="2"
   inkscape:window-width="822"
   inkscape:window-height="1008"
   id="namedview3925"
   showgrid="false"
   fit-margin-top="0"
   fit-margin-left="0"
   fit-margin-right="0"
   fit-margin-bottom="0"
   inkscape:zoom="0.25700388"
   inkscape:cx="576.59398"
   inkscape:cy="111.01101"
   inkscape:window-x="4448"
   inkscape:window-y="32"
   inkscape:window-maximized="0"
   inkscape:current-layer="Laag_1" />
<polygon
   points="497.807,294.963 515.289,294.963 515.289,419.83 497.807,419.83 "
   id="polygon3886"
   style="clip-rule:evenodd;fill:#1e428a;fill-rule:evenodd"
   transform="translate(-149.076,-253.823)" />
<path
   d="m 793.651,40.204 h -15.92 l -54.315,125.803 h 15.919 l 16.859,-39.641 h 39.017 l 7.496,39.641 h 15.92 z m -31.528,73.669 20.602,-51.505 h 0.316 l 9.988,51.505 z"
   id="path3888"
   inkscape:connector-curvature="0"
   style="clip-rule:evenodd;fill:#1e428a;fill-rule:evenodd" />
<path
   d="m 404.292,84.689 v 10.304 c 6.556,-7.183 15.609,-11.553 24.66,-11.553 9.679,0 18.418,4.37 22.789,12.486 4.059,5.62 4.681,12.175 4.681,23.728 v 47.448 h -15.921 v -47.139 c 0,-16.544 -4.994,-23.099 -17.167,-23.099 -7.493,0 -13.736,3.433 -19.042,11.237 v 59 H 387.119 V 84.688 h 17.173 z"
   id="path3890"
   inkscape:connector-curvature="0"
   style="clip-rule:evenodd;fill:#1e428a;fill-rule:evenodd" />
<path
   d="m 498.822,84.22 h 26.22 v 14.67 h -26.22 v 35.591 4.369 c 0.312,10.299 4.37,14.36 12.173,14.36 5.306,0 11.552,-1.561 18.418,-6.243 v 15.295 c -5.932,3.435 -14.985,5.618 -20.915,5.618 -11.239,0 -20.917,-5.618 -24.038,-14.982 -1.559,-4.993 -1.559,-7.184 -1.559,-17.483 V 98.891 H 468.54 V 96.707 L 498.821,67.049 V 84.22 Z"
   id="path3892"
   inkscape:connector-curvature="0"
   style="clip-rule:evenodd;fill:#1e428a;fill-rule:evenodd" />
<path
   d="m 608.966,124.804 c 0,-25.913 -14.361,-42.143 -36.211,-42.143 -23.102,0 -38.708,17.167 -38.708,42.143 0,12.486 4.369,23.102 12.174,31.216 8.115,8.739 16.543,11.861 28.407,11.861 12.801,0 21.541,-2.808 32.463,-9.675 v -15.921 c -9.053,6.864 -18.729,10.304 -29.65,10.304 -15.3,0 -25.287,-10.304 -26.849,-26.223 h 58.375 v -1.562 z m -58.375,-7.806 c 2.81,-13.422 9.987,-20.292 22.164,-20.292 11.24,0 18.416,6.869 19.666,20.292 z"
   id="path3894"
   inkscape:connector-curvature="0"
   style="clip-rule:evenodd;fill:#1e428a;fill-rule:evenodd" />
<polygon
   points="1124.999,338.043 1139.981,338.043 1129.06,420.14 1113.139,420.14 "
   id="polygon3896"
   style="clip-rule:evenodd;fill:#1e428a;fill-rule:evenodd"
   transform="translate(-149.076,-253.823)" />
<path
   d="m 987.162,66.425 c -4.997,0 -8.743,-3.432 -8.743,-8.429 0,-4.994 2.809,-8.743 8.743,-8.743 4.367,0 8.426,3.749 8.426,9.055 0,4.684 -4.059,8.117 -8.426,8.117 z"
   id="path3898"
   inkscape:connector-curvature="0"
   style="clip-rule:evenodd;fill:#1e428a;fill-rule:evenodd" />
<path
   d="m 1068.366,126.677 c 0.938,-2.498 0.938,-7.965 0.938,-11.088 0,-19.979 -12.178,-34.027 -29.972,-34.027 -21.852,0 -38.707,21.23 -38.707,48.078 0,23.412 14.359,39.02 34.959,39.02 9.68,0 18.731,-3.433 27.477,-9.676 l 2.181,-15.297 c -10.926,8.117 -20.29,12.172 -28.093,12.172 -11.553,0 -20.604,-10.3 -20.604,-24.658 0,-1.561 0,-2.024 0,-4.523 h 51.821 z m -29.914,-32.594 c 0.29,-0.021 0.584,-0.032 0.881,-0.032 8.74,0 14.671,7.179 14.671,17.479 v 5.778 h -0.457 -33.567 -1.553 c 2.961,-10.226 9.398,-22.966 20.025,-23.225 z"
   id="path3900"
   inkscape:connector-curvature="0"
   style="clip-rule:evenodd;fill:#1e428a;fill-rule:evenodd" />
<path
   d="m 1120.532,97.954 h -17.171 l -12.799,103.329 h -14.984 l 12.484,-103.329 h -12.484 l 1.561,-13.424 h 13.424 c 0.935,-14.361 3.747,-21.852 8.43,-29.657 7.178,-9.362 18.417,-14.981 30.903,-14.981 5.93,0 11.238,1.246 19.979,4.058 l -2.496,15.296 c -5.311,-2.81 -11.554,-4.683 -16.857,-4.683 -14.36,0 -23.412,10.926 -25.288,29.967 h 16.857 z"
   id="path3902"
   inkscape:connector-curvature="0"
   style="clip-rule:evenodd;fill:#1e428a;fill-rule:evenodd" />
<path
   d="m 921.474,147.906 c 0,-1.003 0.01,-1.88 0.091,-2.788 l 8.339,-47.347 h 20.417 l 2.874,-13.55 H 932.4 l 2.809,-17.171 -35.145,28.539 -0.038,-0.017 -0.419,2.2 h 14.376 l -8.761,49.627 h 10e-4 c -0.167,0.769 -0.294,1.544 -0.294,2.381 0,11.548 8.741,18.728 22.476,18.728 5.308,0 9.678,-0.935 16.235,-3.747 l 1.563,-14.98 c -4.997,3.12 -9.994,4.992 -15.299,4.992 -5.618,-0.002 -8.43,-2.184 -8.43,-6.867 z"
   id="path3904"
   inkscape:connector-curvature="0"
   style="fill:#1e428a" />
<path
   d="m 878.142,81.409 c -32.156,0 -54.63,19.979 -54.63,49.324 0,23.414 14.36,37.773 36.522,37.773 1.133,0 2.182,-0.048 3.176,-0.137 12.058,-0.347 19.46,-4.858 19.46,-4.858 l 1.99,-13.787 c -7.99,4.453 -20.989,5.039 -20.989,5.039 l -0.01,0.034 c -0.266,-0.016 -0.537,-0.026 -0.82,-0.026 -14.361,0 -23.103,-9.365 -23.103,-24.038 0,-20.29 16.233,-35.275 37.775,-35.275 2.494,0 5.307,0 10.3,0.938 l 1.25,0.311 1.872,-13.736 c -5.306,-1.562 -7.493,-1.562 -12.797,-1.562 z"
   id="path3906"
   inkscape:connector-curvature="0"
   style="fill:#1e428a" />
<path
   d="m 665.072,82.971 c -3.152,0 -6.253,0.783 -9.364,2.598 v -0.018 c 0,0 -10.35,5.626 -15.608,12.626 V 84.22 h -15.919 v 82.413 H 640.1 v -43.704 c 0,-13.422 9.366,-24.347 19.663,-24.347 4.373,0 10.616,2.495 15.923,7.802 l 8.118,-14.361 c -6.558,-5.93 -12.799,-9.052 -18.732,-9.052 z"
   id="path3908"
   inkscape:connector-curvature="0"
   style="fill:#1e428a" />
<path
   d="M 110.029,39.569 C 125.2,27.26 165.313,8.723 188.801,8.723 191.256,7.316 196.021,2.181 191.89,0 165.405,0 118.432,20.854 99.713,39.568 h 5.48 4.836 z"
   id="path3910"
   inkscape:connector-curvature="0"
   style="fill:#1e428a" />
<path
   d="m 64.293,211.581 c -12.789,0 -24.006,-3.199 -32.143,-9.605 -3.623,-3.055 -19.52,-18.902 -9.143,-54.695 1.108,-3.537 2.271,-7.17 3.308,-11.156 0.498,-1.961 -2.273,-4.633 -3.953,-2.504 -1.741,2.27 -3.19,4.998 -4.403,7.984 h -0.002 c 0,0 -9.538,20.727 -5.466,42.094 1.269,8.193 4.515,15.117 9.321,20.648 0.022,0.029 0.043,0.055 0.065,0.084 l 0.01,-0.002 c 8.87,10.146 22.975,15.594 39.633,15.594 42.248,0 89.945,-22.982 123.977,-50.238 h -9.994 c -30.258,22.441 -76.005,41.796 -111.21,41.796 z"
   id="path3912"
   inkscape:connector-curvature="0"
   style="fill:#1e428a" />
<path
   d="M 153.721,81.556 H 202.37 V 42.13 c -13.839,0 -24.177,0 -31.766,0 -0.067,0 -4.755,0 -18.619,0 -15.393,0 -42.096,0 -86.346,0 v 39.426 h 48.652 c 0,15.399 0,30.738 0,46.136 H 65.639 v 39.275 h 136.73 c 0,-39.236 0,-25.936 0,-39.275 H 153.72 V 81.556 Z"
   id="path3914"
   inkscape:connector-curvature="0"
   style="fill:#1e428a" />
<polygon
   points="259.805,338.944 211.151,338.944 211.151,295.953 149.076,358.448 211.151,420.791 211.151,377.951 259.805,377.951 "
   id="polygon3916"
   style="fill:#1e428a"
   transform="translate(-149.076,-253.823)" />
<polygon
   points="355.016,338.944 306.361,338.944 306.361,377.951 355.016,377.951 355.016,420.791 417.088,358.448 355.016,295.953 "
   id="polygon3918"
   style="fill:#1e428a"
   transform="translate(-149.076,-253.823)" />
<path
   d="m 249.058,50.923 c 0,8.361 -0.863,14.946 -3.497,22.896 -0.822,3.406 -0.093,5.271 3.316,3.18 4.5,-6.858 6.13,-19.216 6.13,-27.527 0,-26.124 -12.715,-44.476 -39.249,-49.337 -3.452,0.82 -5.947,5.727 -3.179,8.723 21.534,1.318 36.479,21.715 36.479,42.065 z"
   id="path3920"
   inkscape:connector-curvature="0"
   style="fill:#1e428a" />
<path
   d="m 723.416,131.253 h -39.209 v -12.904 h 39.209 z"
   id="path3922"
   inkscape:connector-curvature="0"
   style="fill:#1e428a" />
</svg>